<svg id="Ebene_1" data-name="Ebene 1" xmlns="http://www.w3.org/2000/svg" viewBox="0 0 171.94 54.31"><defs><style>.cls-1{fill:#333;}</style></defs><path class="cls-1" d="M171.94,9.68V.21H115.55l.9,8V45.85l-.5,0a19.89,19.89,0,0,1-4.16-.81A26.56,26.56,0,0,1,106,42.39a28.93,28.93,0,0,1-2.53-1.81l-3.57-2.8Q98,36.24,96.16,34.93a28,28,0,0,0-3-1.94,17.06,17.06,0,0,0,7.46-1.9,12.48,12.48,0,0,0,4.38-4,14.26,14.26,0,0,0,2.08-4.79,20.6,20.6,0,0,0,.54-4.43V16.18a33.75,33.75,0,0,0-.45-5.34,14,14,0,0,0-2-5.28,11.13,11.13,0,0,0-4.88-4A21.83,21.83,0,0,0,91.19,0L64,.13v0H46.63V29.91h-1l-3.53-4L16.63.09H0L.9,7.32v47H18.26V22.86h.9l3.52,4.25,26.21,27.2H64V33.08h2.81A32.33,32.33,0,0,1,78.67,35a25.47,25.47,0,0,1,8.72,6l6.51,6.51q4.42,4.42,7.91,5.55a22.57,22.57,0,0,0,7.09,1.13l7.55,0v0h11.93V31.82h33.8V22.87h-33.8V9.68Zm-88.25,15q-2.72.13-6.15.13-2.9,0-6.24-.09T64,24.4V8.68H88.66c2.65,0,4.48.66,5.51,2a7.79,7.79,0,0,1,1.54,4.88v2.08a6.57,6.57,0,0,1-1.59,4.57q-1.58,1.75-5.55,2.21C87.12,24.52,85.49,24.63,83.69,24.72Z"/></svg>